<svg version="1.1" id="Layer_1" xmlns="http://www.w3.org/2000/svg" xmlns:xlink="http://www.w3.org/1999/xlink" x="0px" y="0px"
	 width="100%" viewBox="0 0 3650 1896" enable-background="new 0 0 3650 1896" xml:space="preserve">
<path fill="#FFFFFF" opacity="1.000000" stroke="none" 
	d="
M2620.000000,1898.000000 
	C1746.666992,1898.000000 874.333984,1898.000000 2.000702,1898.000000 
	C2.000468,1266.000488 2.000468,634.001099 2.000234,2.001211 
	C1218.665649,2.000807 2435.331299,2.000807 3651.997803,2.000404 
	C3651.998535,633.998840 3651.998535,1265.997681 3651.999268,1897.998291 
	C3308.333252,1898.000000 2964.666748,1898.000000 2620.000000,1898.000000 
M274.239319,1109.052368 
	C274.239288,1200.708740 274.197571,1292.365112 274.305084,1384.021362 
	C274.315582,1392.964355 274.692322,1401.978394 275.845551,1410.836182 
	C280.710236,1448.201416 298.201477,1478.918213 326.981995,1502.828125 
	C358.607574,1529.101318 395.167938,1539.826416 436.372955,1536.487305 
	C468.800598,1533.859375 496.930481,1522.213379 521.493164,1501.244629 
	C523.959045,1499.139404 526.613464,1497.255249 529.037109,1495.379395 
	C600.435059,1552.018188 671.284180,1552.186157 742.768555,1495.759644 
	C748.663696,1500.262817 754.670898,1504.924316 760.752991,1509.485718 
	C787.966858,1529.895630 819.221558,1537.669434 852.559937,1537.511963 
	C863.721619,1537.459351 874.866089,1534.495850 886.025757,1532.914429 
	C890.187195,1532.324585 894.369385,1531.881714 898.899963,1531.328003 
	C899.918396,1543.356934 900.558167,1554.261108 901.818970,1565.092773 
	C904.249268,1585.970093 911.854919,1605.014771 923.468506,1622.433960 
	C940.433105,1647.879272 963.762878,1665.727417 991.666870,1677.480835 
	C1019.232788,1689.092041 1048.095825,1693.367676 1077.607422,1687.439697 
	C1125.298584,1677.859985 1159.605835,1650.165527 1180.022583,1606.387207 
	C1200.267700,1562.977051 1218.969360,1518.847656 1238.399658,1475.056641 
	C1242.935791,1464.833374 1247.680664,1454.702759 1252.829468,1443.435425 
	C1311.540039,1501.972900 1381.547607,1534.923096 1462.725830,1541.423218 
	C1543.362183,1547.880005 1619.946045,1533.756958 1688.257935,1486.389526 
	C1692.647705,1490.236328 1696.488159,1493.351074 1700.046387,1496.760620 
	C1723.498413,1519.234009 1751.679688,1532.093872 1783.643799,1535.571533 
	C1825.367554,1540.110962 1863.661133,1530.651611 1896.875488,1503.861450 
	C1899.365845,1501.852783 1902.238647,1500.318481 1904.906250,1498.581421 
	C1908.253418,1501.074219 1911.053711,1502.892212 1913.550537,1505.059814 
	C1944.495361,1531.922852 1980.301270,1543.427612 2021.203979,1540.407715 
	C2044.992798,1538.651245 2067.163086,1532.162842 2086.821777,1519.007324 
	C2096.090576,1512.804688 2103.033447,1512.872192 2112.725586,1517.905884 
	C2173.790527,1549.619019 2238.675049,1558.633057 2306.399170,1548.258057 
	C2362.362793,1539.684692 2412.027832,1517.079224 2455.115967,1480.249756 
	C2462.872314,1473.620239 2470.456299,1466.789062 2478.662842,1459.573364 
	C2536.520264,1517.156860 2605.458252,1548.310181 2686.612061,1551.881714 
	C2767.863525,1555.457275 2839.925049,1531.513916 2902.253662,1479.484863 
	C2907.132324,1483.406738 2910.831543,1486.796143 2914.932129,1489.598755 
	C2927.279785,1498.038330 2939.229736,1507.277466 2952.337891,1514.343140 
	C2982.859375,1530.795288 3015.870117,1537.097412 3050.518555,1536.373047 
	C3092.793213,1535.489380 3130.208008,1522.694458 3161.325195,1493.441406 
	C3199.360352,1457.684570 3211.957275,1413.147583 3204.704102,1362.618408 
	C3198.417969,1318.824341 3174.818359,1285.677979 3138.136475,1261.655396 
	C3132.552979,1257.998779 3130.080078,1254.169800 3130.097900,1247.196045 
	C3130.345459,1148.540771 3130.261719,1049.884521 3130.287842,951.228577 
	C3130.288818,948.333069 3130.613037,945.437683 3130.790771,942.468628 
	C3137.686035,940.169556 3143.972900,937.995361 3150.308594,935.973206 
	C3198.159912,920.699829 3246.030518,905.487854 3293.873291,890.187317 
	C3311.964111,884.401733 3327.637451,874.467773 3341.247803,861.365173 
	C3369.111084,834.542053 3383.022705,801.683594 3382.197266,763.000610 
	C3381.121826,712.599548 3358.521484,673.968140 3315.107910,648.976807 
	C3257.703125,615.931274 3199.434326,584.384521 3141.489258,552.279968 
	C3070.147705,512.752991 2998.728516,473.366058 2927.395264,433.824371 
	C2857.237549,394.934479 2787.139404,355.938049 2717.027100,316.966644 
	C2664.078369,287.535675 2611.299072,257.796021 2558.163574,228.706833 
	C2515.549561,205.377625 2471.925293,203.489594 2428.389648,226.110367 
	C2402.702881,239.456985 2377.625244,253.976425 2352.286865,267.992401 
	C2274.802734,310.853149 2197.285645,353.654572 2119.855957,396.613525 
	C2045.345703,437.952850 1970.957031,479.510956 1896.462524,520.878601 
	C1820.220459,563.216797 1743.910278,605.432739 1667.640137,647.720459 
	C1651.747803,656.531921 1638.141724,667.965637 1626.794678,682.271851 
	C1607.855591,706.149963 1599.245483,733.478882 1598.212158,763.596924 
	C1597.625488,780.691589 1602.939331,796.334900 1609.431885,811.748047 
	C1610.229126,813.640259 1610.693726,815.672485 1611.378174,817.848694 
	C1609.755371,817.944946 1609.052856,818.168945 1608.474976,817.990112 
	C1605.616089,817.104980 1602.692017,816.334656 1599.967896,815.124878 
	C1576.754395,804.815979 1551.893433,801.980286 1527.060547,800.544189 
	C1508.539551,799.473022 1489.849731,801.075317 1471.245239,801.760803 
	C1452.252441,802.460693 1433.613159,805.851685 1415.175781,810.240967 
	C1371.506348,820.636841 1331.308228,838.441406 1296.598999,867.362305 
	C1270.471069,889.132996 1248.727539,914.581848 1234.394775,945.721619 
	C1231.307373,952.429565 1227.541382,955.665955 1219.715332,956.564636 
	C1209.268188,957.764282 1198.831055,960.652283 1188.868896,964.171814 
	C1160.505005,974.192627 1139.377930,993.607727 1122.247437,1017.746704 
	C1116.705200,1025.556274 1111.564209,1033.650635 1105.603027,1042.567383 
	C1099.029907,1033.077148 1093.261963,1024.643555 1087.385498,1016.286377 
	C1073.952026,997.181763 1056.988037,982.140198 1036.250977,971.237610 
	C1013.874084,959.472839 990.164917,955.135559 964.977600,955.531555 
	C937.901550,955.957336 912.904541,962.648926 890.437195,977.436401 
	C882.851624,982.429077 877.188416,982.293823 869.601440,978.137146 
	C841.442017,962.709412 810.798706,954.858582 779.065369,952.489197 
	C737.809937,949.408875 697.339478,954.336365 658.660583,969.884338 
	C651.626343,972.711914 645.570007,972.630249 638.680542,969.590637 
	C615.314148,959.281738 590.455078,954.461060 565.225098,952.445435 
	C535.551147,950.074707 506.129669,952.707214 477.230896,960.466553 
	C472.958832,961.613525 467.917023,961.863708 463.667572,960.794678 
	C441.401459,955.192993 419.052094,954.159119 396.419037,957.865845 
	C364.423584,963.105957 336.961517,977.604492 314.847504,1000.849243 
	C286.776154,1030.355835 273.354706,1066.153076 274.239319,1109.052368 
z"/>
<path fill="#8276E5" opacity="1.000000" stroke="none" 
	d="
M274.239471,1108.063965 
	C273.354706,1066.153076 286.776154,1030.355835 314.847504,1000.849243 
	C336.961517,977.604492 364.423584,963.105957 396.419037,957.865845 
	C419.052094,954.159119 441.401459,955.192993 463.667572,960.794678 
	C467.917023,961.863708 472.958832,961.613525 477.230896,960.466553 
	C506.129669,952.707214 535.551147,950.074707 565.225098,952.445435 
	C590.455078,954.461060 615.314148,959.281738 638.680542,969.590637 
	C645.570007,972.630249 651.626343,972.711914 658.660583,969.884338 
	C697.339478,954.336365 737.809937,949.408875 779.065369,952.489197 
	C810.798706,954.858582 841.442017,962.709412 869.601440,978.137146 
	C877.188416,982.293823 882.851624,982.429077 890.437195,977.436401 
	C912.904541,962.648926 937.901550,955.957336 964.977600,955.531555 
	C990.164917,955.135559 1013.874084,959.472839 1036.250977,971.237610 
	C1056.988037,982.140198 1073.952026,997.181763 1087.385498,1016.286377 
	C1093.261963,1024.643555 1099.029907,1033.077148 1105.603027,1042.567383 
	C1111.564209,1033.650635 1116.705200,1025.556274 1122.247437,1017.746704 
	C1139.377930,993.607727 1160.505005,974.192627 1188.868896,964.171814 
	C1198.831055,960.652283 1209.268188,957.764282 1219.715332,956.564636 
	C1227.541382,955.665955 1231.307373,952.429565 1234.394775,945.721619 
	C1248.727539,914.581848 1270.471069,889.132996 1296.598999,867.362305 
	C1331.308228,838.441406 1371.506348,820.636841 1415.175781,810.240967 
	C1433.613159,805.851685 1452.252441,802.460693 1471.245239,801.760803 
	C1489.849731,801.075317 1508.539551,799.473022 1527.060547,800.544189 
	C1551.893433,801.980286 1576.754395,804.815979 1599.967896,815.124878 
	C1602.692017,816.334656 1605.616089,817.104980 1608.474976,817.990112 
	C1609.052856,818.168945 1609.755371,817.944946 1611.378174,817.848694 
	C1610.693726,815.672485 1610.229126,813.640259 1609.431885,811.748047 
	C1602.939331,796.334900 1597.625488,780.691589 1598.212158,763.596924 
	C1599.245483,733.478882 1607.855591,706.149963 1626.794678,682.271851 
	C1638.141724,667.965637 1651.747803,656.531921 1667.640137,647.720459 
	C1743.910278,605.432739 1820.220459,563.216797 1896.462524,520.878601 
	C1970.957031,479.510956 2045.345703,437.952850 2119.855957,396.613525 
	C2197.285645,353.654572 2274.802734,310.853149 2352.286865,267.992401 
	C2377.625244,253.976425 2402.702881,239.456985 2428.389648,226.110367 
	C2471.925293,203.489594 2515.549561,205.377625 2558.163574,228.706833 
	C2611.299072,257.796021 2664.078369,287.535675 2717.027100,316.966644 
	C2787.139404,355.938049 2857.237549,394.934479 2927.395264,433.824371 
	C2998.728516,473.366058 3070.147705,512.752991 3141.489258,552.279968 
	C3199.434326,584.384521 3257.703125,615.931274 3315.107910,648.976807 
	C3358.521484,673.968140 3381.121826,712.599548 3382.197266,763.000610 
	C3383.022705,801.683594 3369.111084,834.542053 3341.247803,861.365173 
	C3327.637451,874.467773 3311.964111,884.401733 3293.873291,890.187317 
	C3246.030518,905.487854 3198.159912,920.699829 3150.308594,935.973206 
	C3143.972900,937.995361 3137.686035,940.169556 3130.790771,942.468628 
	C3130.613037,945.437683 3130.288818,948.333069 3130.287842,951.228577 
	C3130.261719,1049.884521 3130.345459,1148.540771 3130.097900,1247.196045 
	C3130.080078,1254.169800 3132.552979,1257.998779 3138.136475,1261.655396 
	C3174.818359,1285.677979 3198.417969,1318.824341 3204.704102,1362.618408 
	C3211.957275,1413.147583 3199.360352,1457.684570 3161.325195,1493.441406 
	C3130.208008,1522.694458 3092.793213,1535.489380 3050.518555,1536.373047 
	C3015.870117,1537.097412 2982.859375,1530.795288 2952.337891,1514.343140 
	C2939.229736,1507.277466 2927.279785,1498.038330 2914.932129,1489.598755 
	C2910.831543,1486.796143 2907.132324,1483.406738 2902.253662,1479.484863 
	C2839.925049,1531.513916 2767.863525,1555.457275 2686.612061,1551.881714 
	C2605.458252,1548.310181 2536.520264,1517.156860 2478.662842,1459.573364 
	C2470.456299,1466.789062 2462.872314,1473.620239 2455.115967,1480.249756 
	C2412.027832,1517.079224 2362.362793,1539.684692 2306.399170,1548.258057 
	C2238.675049,1558.633057 2173.790527,1549.619019 2112.725586,1517.905884 
	C2103.033447,1512.872192 2096.090576,1512.804688 2086.821777,1519.007324 
	C2067.163086,1532.162842 2044.992798,1538.651245 2021.203979,1540.407715 
	C1980.301270,1543.427612 1944.495361,1531.922852 1913.550537,1505.059814 
	C1911.053711,1502.892212 1908.253418,1501.074219 1904.906250,1498.581421 
	C1902.238647,1500.318481 1899.365845,1501.852783 1896.875488,1503.861450 
	C1863.661133,1530.651611 1825.367554,1540.110962 1783.643799,1535.571533 
	C1751.679688,1532.093872 1723.498413,1519.234009 1700.046387,1496.760620 
	C1696.488159,1493.351074 1692.647705,1490.236328 1688.257935,1486.389526 
	C1619.946045,1533.756958 1543.362183,1547.880005 1462.725830,1541.423218 
	C1381.547607,1534.923096 1311.540039,1501.972900 1252.829468,1443.435425 
	C1247.680664,1454.702759 1242.935791,1464.833374 1238.399658,1475.056641 
	C1218.969360,1518.847656 1200.267700,1562.977051 1180.022583,1606.387207 
	C1159.605835,1650.165527 1125.298584,1677.859985 1077.607422,1687.439697 
	C1048.095825,1693.367676 1019.232788,1689.092041 991.666870,1677.480835 
	C963.762878,1665.727417 940.433105,1647.879272 923.468506,1622.433960 
	C911.854919,1605.014771 904.249268,1585.970093 901.818970,1565.092773 
	C900.558167,1554.261108 899.918396,1543.356934 898.899963,1531.328003 
	C894.369385,1531.881714 890.187195,1532.324585 886.025757,1532.914429 
	C874.866089,1534.495850 863.721619,1537.459351 852.559937,1537.511963 
	C819.221558,1537.669434 787.966858,1529.895630 760.752991,1509.485718 
	C754.670898,1504.924316 748.663696,1500.262817 742.768555,1495.759644 
	C671.284180,1552.186157 600.435059,1552.018188 529.037109,1495.379395 
	C526.613464,1497.255249 523.959045,1499.139404 521.493164,1501.244629 
	C496.930481,1522.213379 468.800598,1533.859375 436.372955,1536.487305 
	C395.167938,1539.826416 358.607574,1529.101318 326.981995,1502.828125 
	C298.201477,1478.918213 280.710236,1448.201416 275.845551,1410.836182 
	C274.692322,1401.978394 274.315582,1392.964355 274.305084,1384.021362 
	C274.197571,1292.365112 274.239288,1200.708740 274.239471,1108.063965 
M2164.552979,1498.507812 
	C2202.569092,1511.500610 2241.456055,1516.220337 2281.591309,1512.533691 
	C2317.263916,1509.256836 2350.779785,1499.550293 2382.500488,1483.079468 
	C2405.767578,1470.997925 2426.289062,1455.226807 2445.400635,1437.450073 
	C2456.085938,1427.510498 2466.889160,1417.698120 2478.187500,1407.324951 
	C2487.531250,1415.856323 2496.420410,1423.799805 2505.117920,1431.948120 
	C2525.852539,1451.373413 2547.656738,1469.323486 2573.020508,1482.543213 
	C2627.431396,1510.902344 2684.973145,1519.432983 2745.458740,1510.363647 
	C2791.339600,1503.483887 2832.153564,1485.246216 2868.582764,1456.759155 
	C2880.073975,1447.773071 2891.712158,1438.974487 2903.604980,1429.842896 
	C2910.973877,1436.046753 2918.014160,1441.603882 2924.640869,1447.616577 
	C2953.406494,1473.715820 2985.569580,1492.625977 3025.089600,1496.962891 
	C3056.351562,1500.393677 3086.288086,1497.025269 3113.948486,1481.067383 
	C3186.384766,1439.276855 3182.521484,1342.562744 3126.989746,1301.182495 
	C3118.721191,1295.021118 3110.227539,1289.051636 3101.311768,1283.904907 
	C3094.532959,1279.991577 3091.767578,1275.542969 3091.789795,1267.346680 
	C3092.098389,1153.020752 3091.999268,1038.693726 3091.999268,924.367004 
	C3091.999268,921.091675 3091.999023,917.816345 3091.999023,914.420044 
	C3094.893799,913.356689 3097.015869,912.482666 3099.195312,911.790588 
	C3158.841064,892.849915 3218.681641,874.497559 3278.075928,854.799561 
	C3316.835205,841.945068 3339.712158,813.926270 3343.431152,773.328125 
	C3347.106934,733.203064 3329.786133,702.252380 3294.887939,681.725769 
	C3281.108887,673.621094 3266.944580,666.171692 3252.957275,658.420959 
	C3195.554199,626.612244 3138.140137,594.822815 3080.751709,562.987793 
	C3003.844482,520.325317 2926.954346,477.632690 2850.062256,434.942566 
	C2798.509521,406.320740 2746.983398,377.651123 2695.414795,349.057404 
	C2642.681885,319.818176 2589.994873,290.494629 2537.127441,261.500061 
	C2505.313721,244.052078 2473.247070,245.116669 2441.737305,262.402405 
	C2403.185303,283.551270 2364.875977,305.141937 2326.430420,326.484955 
	C2229.440430,380.328888 2132.436035,434.147369 2035.431274,487.964569 
	C1919.490356,552.287354 1803.561768,616.632812 1687.564087,680.853088 
	C1677.513184,686.417664 1668.492798,693.137817 1660.974976,701.722229 
	C1642.979614,722.270630 1634.286255,746.136047 1637.830322,773.466553 
	C1638.876709,781.536987 1641.663696,789.893372 1645.687622,796.960266 
	C1654.230103,811.962463 1663.975708,826.291504 1673.489258,840.724426 
	C1679.461548,849.785400 1680.058105,859.083679 1674.496216,866.726807 
	C1668.311646,875.225647 1659.877075,877.752991 1648.864990,873.919312 
	C1635.345215,869.212708 1621.719360,864.709473 1608.517090,859.211731 
	C1577.765869,846.406372 1546.038208,838.494080 1512.598877,838.275024 
	C1479.829346,838.060303 1447.479248,841.397156 1415.751709,849.928040 
	C1380.231812,859.478638 1347.630615,874.842468 1319.290649,898.568726 
	C1294.301270,919.490051 1276.121582,945.354919 1262.815552,975.077026 
	C1255.561768,991.279846 1259.718994,990.095825 1239.928955,992.254639 
	C1236.958130,992.578796 1234.044678,993.466370 1231.072266,993.735046 
	C1196.816895,996.831909 1170.989258,1013.477722 1152.364136,1042.100586 
	C1138.735596,1063.044922 1124.796509,1083.787354 1110.943604,1104.584961 
	C1109.548218,1106.679688 1107.790894,1108.533447 1105.562744,1111.288818 
	C1103.048340,1107.884155 1101.028198,1105.343506 1099.214966,1102.662720 
	C1085.215576,1081.965698 1071.288574,1061.219360 1057.273438,1040.532959 
	C1046.794067,1025.065430 1033.625977,1012.303406 1016.630798,1004.442078 
	C980.838562,987.885986 945.589233,989.588257 911.485718,1009.610901 
	C901.494690,1015.476807 891.809509,1021.863647 882.087708,1027.946899 
	C874.906372,1024.164551 868.351318,1020.898926 861.971741,1017.320496 
	C828.985657,998.817749 793.527710,989.965881 755.794739,990.169250 
	C724.821533,990.336121 695.007080,996.313843 666.304321,1008.114685 
	C644.207886,1017.199402 651.768982,1016.880127 629.864197,1007.608398 
	C582.979736,987.763367 535.081665,984.956482 486.269043,998.372009 
	C475.277832,1001.392761 465.319519,1001.889648 454.246307,998.540588 
	C427.398071,990.420349 400.556335,992.312256 375.388062,1004.552979 
	C334.037689,1024.664062 312.844574,1058.881592 312.479462,1104.471191 
	C311.745392,1196.126709 312.224335,1287.792358 312.320953,1379.453613 
	C312.329346,1387.416992 312.854156,1395.419678 313.747620,1403.335449 
	C320.202545,1460.524414 373.345764,1508.664429 443.840576,1497.024414 
	C464.774261,1493.567871 482.783203,1483.954834 498.787811,1470.162720 
	C508.596771,1461.710083 518.808594,1453.724854 529.509155,1444.982666 
	C540.927490,1454.205688 552.302307,1462.843994 563.066589,1472.185791 
	C604.298645,1507.968994 669.355103,1507.072998 709.218445,1472.139771 
	C719.690369,1462.962891 730.885498,1454.611328 742.187805,1445.527832 
	C745.978760,1448.491089 749.372864,1451.096436 752.715637,1453.766113 
	C762.347473,1461.458374 771.828918,1469.345337 781.603149,1476.851562 
	C807.202942,1496.511475 836.467957,1501.586304 867.657288,1497.164551 
	C883.446350,1494.926147 899.024658,1491.222534 914.723694,1488.318604 
	C921.168640,1487.126465 927.680542,1486.296387 934.531860,1485.244873 
	C935.078674,1488.205200 935.650452,1490.098755 935.748047,1492.016479 
	C936.628845,1509.310913 937.369507,1526.612549 938.263977,1543.906128 
	C939.221619,1562.421143 942.833191,1580.249634 952.792969,1596.254028 
	C970.089355,1624.047852 995.211914,1640.891235 1026.818115,1648.188599 
	C1060.057129,1655.862793 1090.248901,1649.233032 1116.781006,1627.546509 
	C1130.754639,1616.125000 1140.231689,1601.335327 1147.483032,1584.972412 
	C1172.716064,1528.032471 1197.988770,1471.109985 1223.273193,1414.192749 
	C1228.255127,1402.978271 1233.355835,1391.816650 1238.681763,1380.009766 
	C1241.444458,1382.080200 1243.671509,1383.501587 1245.610229,1385.243896 
	C1255.275757,1393.930420 1264.704956,1402.886230 1274.519287,1411.399414 
	C1289.608398,1424.488403 1304.184448,1438.343262 1320.322510,1450.014404 
	C1361.942383,1480.113892 1408.844727,1496.937012 1459.912476,1502.376709 
	C1492.915527,1505.891968 1525.731201,1505.031006 1558.351318,1498.872925 
	C1597.451538,1491.491699 1633.778564,1477.311646 1666.630859,1454.550293 
	C1675.299683,1448.544189 1684.444580,1443.225098 1693.694214,1437.386597 
	C1704.112061,1447.409790 1714.040161,1456.754028 1723.739746,1466.329834 
	C1765.645630,1507.700928 1831.366211,1506.942749 1870.940674,1474.972046 
	C1880.265015,1467.439331 1890.023560,1460.441650 1899.637817,1453.272339 
	C1901.692017,1451.740479 1903.987061,1450.531616 1906.517212,1448.958740 
	C1917.650757,1458.258667 1928.592773,1466.948120 1939.034302,1476.202148 
	C1975.390991,1508.423828 2029.553467,1510.653809 2068.128174,1485.419434 
	C2074.818848,1481.042603 2081.928467,1477.224976 2088.223633,1472.347168 
	C2094.679199,1467.344971 2100.029053,1467.694214 2107.219727,1471.412231 
	C2125.526855,1480.878052 2144.399902,1489.248779 2164.552979,1498.507812 
z"/>
<path fill="#FEFEFF" opacity="1.000000" stroke="none" 
	d="
M2163.799805,1498.282715 
	C2144.399902,1489.248779 2125.526855,1480.878052 2107.219727,1471.412231 
	C2100.029053,1467.694214 2094.679199,1467.344971 2088.223633,1472.347168 
	C2081.928467,1477.224976 2074.818848,1481.042603 2068.128174,1485.419434 
	C2029.553467,1510.653809 1975.390991,1508.423828 1939.034302,1476.202148 
	C1928.592773,1466.948120 1917.650757,1458.258667 1906.517212,1448.958740 
	C1903.987061,1450.531616 1901.692017,1451.740479 1899.637817,1453.272339 
	C1890.023560,1460.441650 1880.265015,1467.439331 1870.940674,1474.972046 
	C1831.366211,1506.942749 1765.645630,1507.700928 1723.739746,1466.329834 
	C1714.040161,1456.754028 1704.112061,1447.409790 1693.694214,1437.386597 
	C1684.444580,1443.225098 1675.299683,1448.544189 1666.630859,1454.550293 
	C1633.778564,1477.311646 1597.451538,1491.491699 1558.351318,1498.872925 
	C1525.731201,1505.031006 1492.915527,1505.891968 1459.912476,1502.376709 
	C1408.844727,1496.937012 1361.942383,1480.113892 1320.322510,1450.014404 
	C1304.184448,1438.343262 1289.608398,1424.488403 1274.519287,1411.399414 
	C1264.704956,1402.886230 1255.275757,1393.930420 1245.610229,1385.243896 
	C1243.671509,1383.501587 1241.444458,1382.080200 1238.681763,1380.009766 
	C1233.355835,1391.816650 1228.255127,1402.978271 1223.273193,1414.192749 
	C1197.988770,1471.109985 1172.716064,1528.032471 1147.483032,1584.972412 
	C1140.231689,1601.335327 1130.754639,1616.125000 1116.781006,1627.546509 
	C1090.248901,1649.233032 1060.057129,1655.862793 1026.818115,1648.188599 
	C995.211914,1640.891235 970.089355,1624.047852 952.792969,1596.254028 
	C942.833191,1580.249634 939.221619,1562.421143 938.263977,1543.906128 
	C937.369507,1526.612549 936.628845,1509.310913 935.748047,1492.016479 
	C935.650452,1490.098755 935.078674,1488.205200 934.531860,1485.244873 
	C927.680542,1486.296387 921.168640,1487.126465 914.723694,1488.318604 
	C899.024658,1491.222534 883.446350,1494.926147 867.657288,1497.164551 
	C836.467957,1501.586304 807.202942,1496.511475 781.603149,1476.851562 
	C771.828918,1469.345337 762.347473,1461.458374 752.715637,1453.766113 
	C749.372864,1451.096436 745.978760,1448.491089 742.187805,1445.527832 
	C730.885498,1454.611328 719.690369,1462.962891 709.218445,1472.139771 
	C669.355103,1507.072998 604.298645,1507.968994 563.066589,1472.185791 
	C552.302307,1462.843994 540.927490,1454.205688 529.509155,1444.982666 
	C518.808594,1453.724854 508.596771,1461.710083 498.787811,1470.162720 
	C482.783203,1483.954834 464.774261,1493.567871 443.840576,1497.024414 
	C373.345764,1508.664429 320.202545,1460.524414 313.747620,1403.335449 
	C312.854156,1395.419678 312.329346,1387.416992 312.320953,1379.453613 
	C312.224335,1287.792358 311.745392,1196.126709 312.479462,1104.471191 
	C312.844574,1058.881592 334.037689,1024.664062 375.388062,1004.552979 
	C400.556335,992.312256 427.398071,990.420349 454.246307,998.540588 
	C465.319519,1001.889648 475.277832,1001.392761 486.269043,998.372009 
	C535.081665,984.956482 582.979736,987.763367 629.864197,1007.608398 
	C651.768982,1016.880127 644.207886,1017.199402 666.304321,1008.114685 
	C695.007080,996.313843 724.821533,990.336121 755.794739,990.169250 
	C793.527710,989.965881 828.985657,998.817749 861.971741,1017.320496 
	C868.351318,1020.898926 874.906372,1024.164551 882.087708,1027.946899 
	C891.809509,1021.863647 901.494690,1015.476807 911.485718,1009.610901 
	C945.589233,989.588257 980.838562,987.885986 1016.630798,1004.442078 
	C1033.625977,1012.303406 1046.794067,1025.065430 1057.273438,1040.532959 
	C1071.288574,1061.219360 1085.215576,1081.965698 1099.214966,1102.662720 
	C1101.028198,1105.343506 1103.048340,1107.884155 1105.562744,1111.288818 
	C1107.790894,1108.533447 1109.548218,1106.679688 1110.943604,1104.584961 
	C1124.796509,1083.787354 1138.735596,1063.044922 1152.364136,1042.100586 
	C1170.989258,1013.477722 1196.816895,996.831909 1231.072266,993.735046 
	C1234.044678,993.466370 1236.958130,992.578796 1239.928955,992.254639 
	C1259.718994,990.095825 1255.561768,991.279846 1262.815552,975.077026 
	C1276.121582,945.354919 1294.301270,919.490051 1319.290649,898.568726 
	C1347.630615,874.842468 1380.231812,859.478638 1415.751709,849.928040 
	C1447.479248,841.397156 1479.829346,838.060303 1512.598877,838.275024 
	C1546.038208,838.494080 1577.765869,846.406372 1608.517090,859.211731 
	C1621.719360,864.709473 1635.345215,869.212708 1648.864990,873.919312 
	C1659.877075,877.752991 1668.311646,875.225647 1674.496216,866.726807 
	C1680.058105,859.083679 1679.461548,849.785400 1673.489258,840.724426 
	C1663.975708,826.291504 1654.230103,811.962463 1645.687622,796.960266 
	C1641.663696,789.893372 1638.876709,781.536987 1637.830322,773.466553 
	C1634.286255,746.136047 1642.979614,722.270630 1660.974976,701.722229 
	C1668.492798,693.137817 1677.513184,686.417664 1687.564087,680.853088 
	C1803.561768,616.632812 1919.490356,552.287354 2035.431274,487.964569 
	C2132.436035,434.147369 2229.440430,380.328888 2326.430420,326.484955 
	C2364.875977,305.141937 2403.185303,283.551270 2441.737305,262.402405 
	C2473.247070,245.116669 2505.313721,244.052078 2537.127441,261.500061 
	C2589.994873,290.494629 2642.681885,319.818176 2695.414795,349.057404 
	C2746.983398,377.651123 2798.509521,406.320740 2850.062256,434.942566 
	C2926.954346,477.632690 3003.844482,520.325317 3080.751709,562.987793 
	C3138.140137,594.822815 3195.554199,626.612244 3252.957275,658.420959 
	C3266.944580,666.171692 3281.108887,673.621094 3294.887939,681.725769 
	C3329.786133,702.252380 3347.106934,733.203064 3343.431152,773.328125 
	C3339.712158,813.926270 3316.835205,841.945068 3278.075928,854.799561 
	C3218.681641,874.497559 3158.841064,892.849915 3099.195312,911.790588 
	C3097.015869,912.482666 3094.893799,913.356689 3091.999023,914.420044 
	C3091.999023,917.816345 3091.999268,921.091675 3091.999268,924.367004 
	C3091.999268,1038.693726 3092.098389,1153.020752 3091.789795,1267.346680 
	C3091.767578,1275.542969 3094.532959,1279.991577 3101.311768,1283.904907 
	C3110.227539,1289.051636 3118.721191,1295.021118 3126.989746,1301.182495 
	C3182.521484,1342.562744 3186.384766,1439.276855 3113.948486,1481.067383 
	C3086.288086,1497.025269 3056.351562,1500.393677 3025.089600,1496.962891 
	C2985.569580,1492.625977 2953.406494,1473.715820 2924.640869,1447.616577 
	C2918.014160,1441.603882 2910.973877,1436.046753 2903.604980,1429.842896 
	C2891.712158,1438.974487 2880.073975,1447.773071 2868.582764,1456.759155 
	C2832.153564,1485.246216 2791.339600,1503.483887 2745.458740,1510.363647 
	C2684.973145,1519.432983 2627.431396,1510.902344 2573.020508,1482.543213 
	C2547.656738,1469.323486 2525.852539,1451.373413 2505.117920,1431.948120 
	C2496.420410,1423.799805 2487.531250,1415.856323 2478.187500,1407.324951 
	C2466.889160,1417.698120 2456.085938,1427.510498 2445.400635,1437.450073 
	C2426.289062,1455.226807 2405.767578,1470.997925 2382.500488,1483.079468 
	C2350.779785,1499.550293 2317.263916,1509.256836 2281.591309,1512.533691 
	C2241.456055,1516.220337 2202.569092,1511.500610 2163.799805,1498.282715 
M2019.254517,873.746216 
	C2046.769165,882.454651 2074.283691,891.163025 2101.616211,899.813721 
	C2101.784180,903.106018 2101.972168,905.084412 2101.972900,907.062927 
	C2101.990723,949.062927 2101.987061,991.062866 2101.990479,1033.062866 
	C2101.990723,1035.729492 2101.886719,1038.403564 2102.045654,1041.061401 
	C2102.906738,1055.474121 2116.303955,1062.562866 2128.486084,1055.000000 
	C2131.875977,1052.895386 2135.052979,1050.437744 2138.264893,1048.057129 
	C2182.834961,1015.021118 2229.855957,986.164185 2280.611328,963.489624 
	C2338.343018,937.698608 2398.521484,921.733765 2461.732422,918.393066 
	C2501.831543,916.273926 2541.525146,920.323425 2580.731201,929.135742 
	C2644.541016,943.478271 2703.130615,970.111572 2757.827148,1005.383057 
	C2780.472900,1019.986450 2801.923584,1036.453369 2823.785645,1052.255493 
	C2830.374268,1057.017578 2836.979492,1060.242188 2844.999268,1056.220703 
	C2852.607422,1052.405762 2854.623047,1045.702393 2854.146973,1037.796631 
	C2854.046875,1036.136108 2854.136475,1034.464111 2854.136475,1032.797485 
	C2854.136963,994.797485 2854.136963,956.797485 2854.136963,918.797485 
	C2854.136963,915.226685 2854.136963,911.655945 2854.136963,908.102112 
	C2857.942871,906.661438 2860.666016,905.477478 2863.482178,904.587219 
	C2920.297363,886.625549 2977.126465,868.708313 3033.945801,850.759766 
	C3084.417236,834.816467 3134.882568,818.855286 3185.344971,802.883484 
	C3207.879883,795.750854 3230.414795,788.616760 3252.919678,781.390259 
	C3260.094238,779.086426 3265.214844,774.658203 3265.997803,766.667969 
	C3266.810303,758.375671 3262.979980,752.684570 3255.729980,748.908081 
	C3250.414062,746.139038 3245.246094,743.086121 3240.000732,740.181030 
	C3181.711670,707.899109 3123.398926,675.659363 3065.134277,643.333130 
	C2988.810303,600.987122 2912.534424,558.554810 2836.217285,516.196411 
	C2791.067139,491.136810 2745.869629,466.163300 2700.708496,441.123962 
	C2634.860107,404.614685 2568.950195,368.214935 2503.270020,331.405457 
	C2493.983643,326.200897 2486.229736,326.508057 2477.189697,331.551819 
	C2409.403076,369.372620 2341.446289,406.888092 2273.576416,444.559967 
	C2173.665771,500.016327 2073.801514,555.556702 1973.882446,610.997559 
	C1897.267456,653.507812 1820.596558,695.917175 1743.955200,738.379700 
	C1737.253052,742.092957 1730.485718,745.703491 1723.930664,749.662842 
	C1717.852539,753.334290 1713.806030,758.643921 1714.660156,766.100647 
	C1715.531860,773.709900 1719.952393,778.872314 1727.342041,781.290894 
	C1731.455688,782.637268 1735.571777,783.976379 1739.698120,785.283081 
	C1832.368530,814.629089 1925.040527,843.970154 2019.254517,873.746216 
M2884.469482,1305.399658 
	C2898.919189,1257.155518 2897.650879,1209.451782 2874.376221,1164.512573 
	C2842.816162,1103.575684 2792.533936,1067.340698 2723.546875,1059.766724 
	C2658.756348,1052.653442 2603.368408,1072.558105 2558.312988,1120.134033 
	C2556.769531,1121.764038 2554.936768,1123.119995 2553.091553,1124.732300 
	C2502.908936,1097.015869 2452.950439,1097.579102 2403.411865,1125.180908 
	C2401.572754,1123.432251 2400.318848,1122.364502 2399.207275,1121.165039 
	C2365.927490,1085.249023 2325.303711,1064.021362 2276.272705,1059.406616 
	C2223.149414,1054.406738 2175.270508,1067.207275 2133.303711,1100.796509 
	C2053.050537,1165.030151 2046.661621,1269.549805 2086.680664,1338.672241 
	C2127.683350,1409.494141 2205.268555,1449.287964 2294.639404,1432.238159 
	C2410.834717,1410.071045 2486.477051,1282.543213 2427.917480,1162.276123 
	C2426.493164,1159.351196 2425.075439,1156.423096 2423.427979,1153.028931 
	C2460.335205,1133.779053 2496.414795,1133.369629 2533.362305,1152.867554 
	C2531.428955,1156.673340 2529.736084,1159.877319 2528.155518,1163.135498 
	C2503.869141,1213.199341 2501.571533,1264.583984 2521.521484,1316.204102 
	C2548.810059,1386.813599 2628.420898,1452.750244 2737.229492,1432.612549 
	C2809.572998,1419.223633 2858.072021,1375.648438 2884.469482,1305.399658 
M880.264038,1394.665283 
	C880.645508,1389.693115 881.351929,1384.721436 881.358826,1379.748657 
	C881.437012,1323.085693 881.617859,1266.421387 881.280579,1209.760254 
	C881.179626,1192.816895 880.146973,1175.809570 875.792236,1159.259399 
	C864.424622,1116.057129 838.676208,1086.150635 795.227173,1073.023560 
	C780.456238,1068.560791 765.155212,1067.383301 749.751892,1068.144165 
	C712.350464,1069.991699 679.682983,1082.874390 653.081238,1109.815918 
	C650.798035,1112.128418 648.398743,1114.326294 645.245300,1117.352905 
	C622.487244,1086.593628 591.989441,1070.771729 554.845276,1068.327393 
	C517.906677,1065.896606 484.729736,1076.083130 456.929504,1101.153076 
	C454.261414,1095.106323 452.700134,1089.503418 449.599640,1084.947876 
	C441.853302,1073.566284 427.180847,1069.219482 413.086823,1073.298340 
	C399.771515,1077.151978 391.308350,1087.599854 390.256561,1101.676758 
	C390.008759,1104.993408 390.128021,1108.339722 390.127808,1111.672363 
	C390.122406,1201.666748 390.122559,1291.661011 390.127258,1381.655396 
	C390.127411,1384.654785 389.982635,1387.672363 390.252380,1390.650146 
	C391.168549,1400.763916 395.196289,1409.307495 403.754089,1415.166504 
	C414.952026,1422.833008 426.986511,1422.996216 438.861084,1417.412354 
	C450.227112,1412.067627 454.811493,1401.906982 455.712158,1389.855957 
	C455.910339,1387.203979 455.748535,1384.525024 455.750519,1381.858521 
	C455.795013,1322.529419 455.731659,1263.200073 455.943451,1203.871582 
	C456.015106,1183.798950 462.781830,1165.932983 476.194275,1150.933838 
	C493.050354,1132.083374 514.688416,1126.047119 539.349548,1127.546753 
	C569.573853,1129.385010 592.691895,1147.492188 599.682190,1176.866577 
	C602.125244,1187.132935 603.351501,1197.921631 603.416443,1208.482300 
	C603.768799,1265.809937 603.581543,1323.140747 603.589417,1380.470459 
	C603.589905,1384.136108 603.534119,1387.809204 603.733826,1391.466309 
	C604.604126,1407.404785 615.379761,1418.866455 632.416687,1420.788208 
	C649.791748,1422.747925 662.288391,1413.647095 666.808533,1399.667969 
	C668.200928,1395.361572 668.190857,1390.483032 668.198059,1385.865479 
	C668.285217,1330.202393 668.173035,1274.539062 668.335999,1218.876343 
	C668.363220,1209.582031 668.475464,1200.101929 670.230164,1191.032959 
	C676.130798,1160.535889 692.627808,1138.280151 723.602417,1130.120483 
	C734.267395,1127.310913 746.185608,1127.024170 757.217529,1128.299316 
	C781.462830,1131.101685 799.269226,1143.849121 808.849731,1166.969482 
	C814.309570,1180.145264 815.806946,1193.994751 815.828125,1208.038574 
	C815.916077,1266.368164 815.865967,1324.697876 815.875000,1383.027588 
	C815.875488,1386.359863 815.730774,1389.711914 816.030396,1393.020752 
	C817.164062,1405.541382 826.433228,1416.683838 838.350647,1419.714233 
	C860.080872,1425.239868 877.007935,1413.263550 880.264038,1394.665283 
M1447.307251,922.179810 
	C1423.097290,927.724548 1400.035156,936.049988 1379.509033,950.414917 
	C1335.265747,981.378052 1319.863770,1026.988770 1331.260986,1078.336304 
	C1338.416382,1110.573608 1357.844849,1134.558960 1384.253784,1153.255615 
	C1416.124146,1175.818848 1452.510010,1185.733643 1490.718384,1190.017578 
	C1512.289307,1192.435913 1533.669800,1195.476562 1553.817383,1204.131104 
	C1575.369751,1213.389282 1592.599121,1227.564941 1602.848267,1248.999268 
	C1616.785645,1278.147095 1615.812622,1321.692993 1575.520752,1345.811157 
	C1568.977905,1349.727417 1562.173706,1353.478760 1555.047363,1356.103149 
	C1514.934692,1370.874023 1474.708252,1370.323486 1434.998169,1354.850708 
	C1409.257080,1344.821167 1387.189453,1329.995605 1375.114258,1303.539551 
	C1371.859131,1296.407715 1365.602661,1291.610229 1358.476807,1288.247681 
	C1345.527588,1282.136841 1328.444458,1285.060913 1318.600708,1295.012085 
	C1309.947388,1303.759644 1309.130737,1314.198608 1316.023804,1329.209839 
	C1325.236450,1349.272461 1338.734009,1366.027710 1355.925171,1379.738159 
	C1388.288452,1405.549194 1425.381592,1420.375732 1466.323608,1424.898438 
	C1514.318848,1430.200439 1560.925293,1424.809814 1604.072266,1401.601318 
	C1636.742065,1384.028320 1660.220947,1358.138306 1670.955933,1321.874878 
	C1676.036621,1304.712036 1677.062256,1287.105103 1675.760498,1269.411377 
	C1672.816040,1229.393555 1656.067871,1196.575439 1623.837524,1172.114502 
	C1604.428467,1157.384399 1582.650391,1147.303101 1559.001587,1142.227783 
	C1538.222290,1137.768311 1517.014282,1135.298828 1495.987183,1132.003540 
	C1475.873413,1128.851562 1456.034424,1124.719482 1437.434448,1116.031982 
	C1423.191895,1109.379761 1411.587646,1099.632080 1403.226807,1086.278198 
	C1382.573975,1053.291260 1392.913696,1011.925354 1426.897095,993.306885 
	C1435.567993,988.556335 1445.042114,984.789612 1454.590942,982.220642 
	C1476.655396,976.284790 1499.174194,975.072021 1521.966309,977.713928 
	C1546.186768,980.521545 1568.138062,988.588135 1585.586182,1005.879517 
	C1594.493042,1014.706238 1602.007202,1025.046143 1609.415405,1035.236816 
	C1613.843750,1041.328369 1618.531006,1046.670410 1625.407349,1049.811157 
	C1633.628906,1053.566284 1642.191162,1054.089722 1650.766479,1051.483765 
	C1664.305542,1047.369263 1672.901489,1032.984497 1668.911011,1019.093384 
	C1666.572876,1010.954773 1662.463745,1002.995117 1657.694458,995.939636 
	C1631.721680,957.515259 1597.538574,930.226318 1551.185425,920.690552 
	C1517.100342,913.678467 1482.966675,915.036377 1447.307251,922.179810 
M1833.854492,1065.000000 
	C1833.854492,1045.000366 1833.855713,1025.000732 1833.853882,1005.001099 
	C1833.852295,988.001282 1833.909058,971.001099 1833.822021,954.001709 
	C1833.761963,942.256409 1829.753784,932.372864 1819.199951,926.219421 
	C1797.686523,913.676147 1772.636475,926.966248 1770.924316,951.724731 
	C1770.786621,953.716064 1770.857300,955.722839 1770.857300,957.722473 
	C1770.854980,1100.054565 1770.848267,1242.386597 1770.892578,1384.718750 
	C1770.893799,1388.697876 1771.094849,1392.740112 1771.802124,1396.644287 
	C1774.274902,1410.292725 1784.927856,1419.373657 1798.978027,1420.141968 
	C1815.729492,1421.058105 1827.927734,1413.900757 1831.935547,1400.153564 
	C1833.309082,1395.442505 1833.743042,1390.317871 1833.771606,1385.377441 
	C1833.937134,1356.712036 1833.769531,1328.044434 1833.966797,1299.379395 
	C1833.990234,1295.989258 1834.462646,1291.491577 1836.589722,1289.419434 
	C1845.593994,1280.646729 1855.302246,1272.596558 1865.124756,1263.955444 
	C1867.611816,1266.787476 1869.646118,1268.948242 1871.508423,1271.248413 
	C1891.221680,1295.597534 1910.906006,1319.970093 1930.601685,1344.333374 
	C1948.830688,1366.882324 1967.139282,1389.367554 1985.254761,1412.007202 
	C1991.678223,1420.034912 1999.368286,1425.098755 2009.975708,1424.690552 
	C2023.183472,1424.182373 2032.927246,1417.822754 2038.641846,1406.161499 
	C2044.319092,1394.576294 2042.300171,1383.569214 2034.127441,1373.569824 
	C2007.130249,1340.538208 1980.192139,1307.458374 1953.238525,1274.391235 
	C1939.359131,1257.363525 1925.495117,1240.323608 1911.245850,1222.824585 
	C1913.982910,1220.218384 1916.295776,1217.889404 1918.739990,1215.707520 
	C1952.805298,1185.297729 1986.889771,1154.909302 2020.965698,1124.511475 
	C2024.198364,1121.627686 2027.593262,1118.895996 2030.589722,1115.782715 
	C2040.084595,1105.918091 2041.073242,1091.098389 2033.166870,1080.003906 
	C2021.315796,1063.374146 2003.071655,1061.399780 1987.579468,1075.211670 
	C1939.562500,1118.020874 1891.592529,1160.882812 1843.586182,1203.703979 
	C1840.988281,1206.021240 1838.225342,1208.153442 1833.854492,1211.763184 
	C1833.854492,1162.025024 1833.854492,1114.512573 1833.854492,1065.000000 
M1169.817139,1342.839966 
	C1198.968750,1277.453125 1228.140991,1212.075562 1257.253052,1146.671143 
	C1262.532104,1134.811401 1268.068848,1123.029419 1272.587524,1110.877319 
	C1278.619629,1094.655518 1273.519897,1083.024292 1257.878174,1075.742920 
	C1238.967285,1066.939453 1222.746338,1071.095825 1214.326416,1090.839844 
	C1204.530884,1113.809448 1194.101562,1136.508423 1183.972046,1159.335693 
	C1161.688232,1209.553589 1139.431396,1259.783569 1117.114380,1309.986694 
	C1115.850952,1312.828857 1114.144775,1315.474121 1112.008179,1319.372314 
	C1109.633423,1315.066772 1107.968750,1312.270508 1106.509644,1309.370728 
	C1071.478027,1239.747681 1036.472046,1170.111450 1001.447449,1100.484741 
	C998.903137,1095.426880 996.562317,1090.231079 993.594299,1085.428467 
	C984.887695,1071.340942 968.036804,1067.178223 953.409363,1075.232422 
	C938.442810,1083.473267 933.546448,1098.999512 941.181274,1114.459229 
	C944.868164,1121.924683 948.767761,1129.286743 952.651611,1136.653076 
	C995.213867,1217.381226 1037.763184,1298.116211 1080.439575,1378.784058 
	C1082.960449,1383.549072 1083.484253,1387.452515 1081.120239,1392.667725 
	C1065.724731,1426.631104 1050.744141,1460.782471 1035.621094,1494.869385 
	C1030.354980,1506.739136 1024.962891,1518.554443 1019.818359,1530.476440 
	C1012.252563,1548.009155 1017.892029,1562.059937 1035.402832,1569.460571 
	C1038.454102,1570.750122 1041.679565,1571.689575 1044.894653,1572.518433 
	C1055.641357,1575.288574 1065.843994,1571.476318 1071.711304,1562.118164 
	C1074.348999,1557.911499 1076.308594,1553.255493 1078.344238,1548.699829 
	C1088.532349,1525.899658 1098.645630,1503.065796 1108.781982,1480.242310 
	C1128.918579,1434.901978 1149.052979,1389.560791 1169.817139,1342.839966 
M2971.122803,1379.775757 
	C2990.677979,1408.064575 3017.463867,1421.829834 3052.000000,1420.162598 
	C3062.270264,1419.666870 3071.676758,1416.773560 3079.763428,1410.355957 
	C3089.791016,1402.398193 3093.052979,1390.195312 3089.009766,1376.916260 
	C3085.225342,1364.487183 3075.721191,1356.938354 3062.594971,1356.239624 
	C3057.280273,1355.956665 3051.933838,1355.987671 3046.612549,1356.179810 
	C3038.210205,1356.483154 3031.521973,1352.980347 3026.903320,1346.398315 
	C3023.321289,1341.293823 3019.692871,1335.645874 3018.289551,1329.717651 
	C3015.936279,1319.779663 3014.227295,1309.431152 3014.180420,1299.246460 
	C3013.846191,1226.640381 3014.002197,1154.031860 3014.001221,1081.424194 
	C3014.000732,1039.125244 3014.092041,996.825928 3013.955566,954.527405 
	C3013.892578,935.001709 3001.234131,922.182495 2982.412354,922.020142 
	C2963.066895,921.853271 2950.311035,934.721985 2950.010254,954.729675 
	C2949.965332,957.726624 2949.999023,960.724731 2949.999023,963.722290 
	C2949.998535,1047.321045 2949.997803,1130.919800 2949.998779,1214.518555 
	C2949.999023,1244.827271 2949.826904,1275.137329 2950.059082,1305.444336 
	C2950.259033,1331.573364 2956.306396,1356.204346 2971.122803,1379.775757 
z"/>
<path fill="#8276E5" opacity="1.000000" stroke="none" 
	d="
M2018.483398,873.529175 
	C1925.040527,843.970154 1832.368530,814.629089 1739.698120,785.283081 
	C1735.571777,783.976379 1731.455688,782.637268 1727.342041,781.290894 
	C1719.952393,778.872314 1715.531860,773.709900 1714.660156,766.100647 
	C1713.806030,758.643921 1717.852539,753.334290 1723.930664,749.662842 
	C1730.485718,745.703491 1737.253052,742.092957 1743.955200,738.379700 
	C1820.596558,695.917175 1897.267456,653.507812 1973.882446,610.997559 
	C2073.801514,555.556702 2173.665771,500.016327 2273.576416,444.559967 
	C2341.446289,406.888092 2409.403076,369.372620 2477.189697,331.551819 
	C2486.229736,326.508057 2493.983643,326.200897 2503.270020,331.405457 
	C2568.950195,368.214935 2634.860107,404.614685 2700.708496,441.123962 
	C2745.869629,466.163300 2791.067139,491.136810 2836.217285,516.196411 
	C2912.534424,558.554810 2988.810303,600.987122 3065.134277,643.333130 
	C3123.398926,675.659363 3181.711670,707.899109 3240.000732,740.181030 
	C3245.246094,743.086121 3250.414062,746.139038 3255.729980,748.908081 
	C3262.979980,752.684570 3266.810303,758.375671 3265.997803,766.667969 
	C3265.214844,774.658203 3260.094238,779.086426 3252.919678,781.390259 
	C3230.414795,788.616760 3207.879883,795.750854 3185.344971,802.883484 
	C3134.882568,818.855286 3084.417236,834.816467 3033.945801,850.759766 
	C2977.126465,868.708313 2920.297363,886.625549 2863.482178,904.587219 
	C2860.666016,905.477478 2857.942871,906.661438 2854.136963,908.102112 
	C2854.136963,911.655945 2854.136963,915.226685 2854.136963,918.797485 
	C2854.136963,956.797485 2854.136963,994.797485 2854.136475,1032.797485 
	C2854.136475,1034.464111 2854.046875,1036.136108 2854.146973,1037.796631 
	C2854.623047,1045.702393 2852.607422,1052.405762 2844.999268,1056.220703 
	C2836.979492,1060.242188 2830.374268,1057.017578 2823.785645,1052.255493 
	C2801.923584,1036.453369 2780.472900,1019.986450 2757.827148,1005.383057 
	C2703.130615,970.111572 2644.541016,943.478271 2580.731201,929.135742 
	C2541.525146,920.323425 2501.831543,916.273926 2461.732422,918.393066 
	C2398.521484,921.733765 2338.343018,937.698608 2280.611328,963.489624 
	C2229.855957,986.164185 2182.834961,1015.021118 2138.264893,1048.057129 
	C2135.052979,1050.437744 2131.875977,1052.895386 2128.486084,1055.000000 
	C2116.303955,1062.562866 2102.906738,1055.474121 2102.045654,1041.061401 
	C2101.886719,1038.403564 2101.990723,1035.729492 2101.990479,1033.062866 
	C2101.987061,991.062866 2101.990723,949.062927 2101.972900,907.062927 
	C2101.972168,905.084412 2101.784180,903.106018 2101.616211,899.813721 
	C2074.283691,891.163025 2046.769165,882.454651 2018.483398,873.529175 
M2123.683594,566.657715 
	C2065.993164,598.633911 2008.234863,630.488342 1950.631592,662.620667 
	C1892.922852,694.811707 1834.890991,726.435730 1777.371460,758.963440 
	C1777.462280,759.832397 1777.552979,760.701294 1777.643799,761.570251 
	C1885.287964,795.661011 1992.932007,829.751770 2101.985107,864.288757 
	C2101.985107,859.799927 2101.984863,856.578369 2101.985107,853.356812 
	C2101.986328,828.358643 2102.212891,803.357422 2101.877197,778.363770 
	C2101.745605,768.546387 2105.470215,762.298767 2114.245850,757.656738 
	C2169.018799,728.683899 2223.602783,699.354065 2278.258301,670.158569 
	C2325.567383,644.887146 2372.878418,619.618958 2420.208984,594.388000 
	C2435.789795,586.082275 2451.303711,577.633362 2467.102783,569.761047 
	C2475.933594,565.360779 2485.029785,568.624695 2489.421387,576.704590 
	C2493.927490,584.995056 2491.618896,593.757935 2483.159912,599.216431 
	C2478.972168,601.919006 2474.466797,604.139160 2470.057617,606.488525 
	C2373.622803,657.870483 2277.175781,709.229736 2180.746338,760.622070 
	C2165.806885,768.584106 2150.941650,776.685669 2136.532227,784.458191 
	C2134.271973,811.101074 2135.325928,998.567749 2137.834229,1005.950378 
	C2140.421387,1004.361328 2142.946533,1002.860657 2145.421631,1001.281677 
	C2160.865967,991.429382 2176.018066,981.082947 2191.784912,971.777649 
	C2262.450195,930.072876 2337.345459,900.072632 2419.366455,889.516541 
	C2459.565918,884.342834 2499.763428,883.897583 2539.878418,888.621643 
	C2597.560547,895.414429 2652.395264,912.407776 2704.792725,937.427002 
	C2741.876221,955.133789 2777.070312,975.997009 2810.539307,999.811035 
	C2813.313232,1001.784851 2816.214600,1003.579895 2820.235840,1006.237305 
	C2820.235840,1002.556396 2820.235840,1000.906738 2820.235840,999.257019 
	C2820.236572,965.926086 2820.196533,932.595093 2820.258789,899.264282 
	C2820.281982,886.829590 2823.932861,881.845825 2835.703613,877.988464 
	C2845.192871,874.878784 2854.751465,871.982239 2864.272217,868.969177 
	C2913.781982,853.300964 2963.292725,837.636292 3012.796875,821.950317 
	C3074.676514,802.342957 3136.553223,782.724976 3198.413086,763.055176 
	C3200.337402,762.443359 3202.063232,761.207092 3204.710449,759.831116 
	C3201.957764,758.120789 3200.322510,757.007690 3198.600830,756.049683 
	C3170.656738,740.500183 3142.709717,724.955750 3114.747559,709.438538 
	C3029.693359,662.239136 2944.646484,615.026978 2859.570801,567.866455 
	C2738.948975,501.001251 2618.279541,434.222015 2497.750488,367.189972 
	C2492.363037,364.193665 2488.164551,363.615295 2483.237549,367.126068 
	C2481.353271,368.468933 2479.145020,369.352020 2477.106689,370.484680 
	C2424.984131,399.448517 2372.880371,428.446655 2320.740234,457.378754 
	C2255.492676,493.583954 2190.215576,529.735779 2123.683594,566.657715 
z"/>
<path fill="#5B3593" opacity="1.000000" stroke="none" 
	d="
M2884.263672,1306.164795 
	C2858.072021,1375.648438 2809.572998,1419.223633 2737.229492,1432.612549 
	C2628.420898,1452.750244 2548.810059,1386.813599 2521.521484,1316.204102 
	C2501.571533,1264.583984 2503.869141,1213.199341 2528.155518,1163.135498 
	C2529.736084,1159.877319 2531.428955,1156.673340 2533.362305,1152.867554 
	C2496.414795,1133.369629 2460.335205,1133.779053 2423.427979,1153.028931 
	C2425.075439,1156.423096 2426.493164,1159.351196 2427.917480,1162.276123 
	C2486.477051,1282.543213 2410.834717,1410.071045 2294.639404,1432.238159 
	C2205.268555,1449.287964 2127.683350,1409.494141 2086.680664,1338.672241 
	C2046.661621,1269.549805 2053.050537,1165.030151 2133.303711,1100.796509 
	C2175.270508,1067.207275 2223.149414,1054.406738 2276.272705,1059.406616 
	C2325.303711,1064.021362 2365.927490,1085.249023 2399.207275,1121.165039 
	C2400.318848,1122.364502 2401.572754,1123.432251 2403.411865,1125.180908 
	C2452.950439,1097.579102 2502.908936,1097.015869 2553.091553,1124.732300 
	C2554.936768,1123.119995 2556.769531,1121.764038 2558.312988,1120.134033 
	C2603.368408,1072.558105 2658.756348,1052.653442 2723.546875,1059.766724 
	C2792.533936,1067.340698 2842.816162,1103.575684 2874.376221,1164.512573 
	C2897.650879,1209.451782 2898.919189,1257.155518 2884.263672,1306.164795 
M2611.388184,1351.660767 
	C2643.848877,1379.891235 2681.653564,1390.079102 2723.752686,1383.529175 
	C2796.058594,1372.279541 2864.947266,1293.254639 2831.255371,1197.936646 
	C2814.064697,1149.302979 2759.885986,1102.591797 2686.360352,1109.321533 
	C2618.599121,1115.523560 2546.376465,1181.044800 2565.046143,1274.959961 
	C2571.122803,1305.529541 2587.386230,1330.156006 2611.388184,1351.660767 
M2179.130127,1361.988403 
	C2209.167480,1382.673950 2242.519775,1389.136475 2278.070312,1383.555664 
	C2352.987061,1371.794922 2422.190186,1288.840698 2383.466064,1192.545776 
	C2359.877197,1133.887207 2295.641113,1099.852661 2232.061768,1110.448486 
	C2161.329834,1122.236328 2099.519775,1191.116333 2120.807861,1280.635254 
	C2128.944092,1314.849487 2149.866699,1340.729126 2179.130127,1361.988403 
z"/>
<path fill="#8175E5" opacity="1.000000" stroke="none" 
	d="
M880.169434,1395.490845 
	C877.007935,1413.263550 860.080872,1425.239868 838.350647,1419.714233 
	C826.433228,1416.683838 817.164062,1405.541382 816.030396,1393.020752 
	C815.730774,1389.711914 815.875488,1386.359863 815.875000,1383.027588 
	C815.865967,1324.697876 815.916077,1266.368164 815.828125,1208.038574 
	C815.806946,1193.994751 814.309570,1180.145264 808.849731,1166.969482 
	C799.269226,1143.849121 781.462830,1131.101685 757.217529,1128.299316 
	C746.185608,1127.024170 734.267395,1127.310913 723.602417,1130.120483 
	C692.627808,1138.280151 676.130798,1160.535889 670.230164,1191.032959 
	C668.475464,1200.101929 668.363220,1209.582031 668.335999,1218.876343 
	C668.173035,1274.539062 668.285217,1330.202393 668.198059,1385.865479 
	C668.190857,1390.483032 668.200928,1395.361572 666.808533,1399.667969 
	C662.288391,1413.647095 649.791748,1422.747925 632.416687,1420.788208 
	C615.379761,1418.866455 604.604126,1407.404785 603.733826,1391.466309 
	C603.534119,1387.809204 603.589905,1384.136108 603.589417,1380.470459 
	C603.581543,1323.140747 603.768799,1265.809937 603.416443,1208.482300 
	C603.351501,1197.921631 602.125244,1187.132935 599.682190,1176.866577 
	C592.691895,1147.492188 569.573853,1129.385010 539.349548,1127.546753 
	C514.688416,1126.047119 493.050354,1132.083374 476.194275,1150.933838 
	C462.781830,1165.932983 456.015106,1183.798950 455.943451,1203.871582 
	C455.731659,1263.200073 455.795013,1322.529419 455.750519,1381.858521 
	C455.748535,1384.525024 455.910339,1387.203979 455.712158,1389.855957 
	C454.811493,1401.906982 450.227112,1412.067627 438.861084,1417.412354 
	C426.986511,1422.996216 414.952026,1422.833008 403.754089,1415.166504 
	C395.196289,1409.307495 391.168549,1400.763916 390.252380,1390.650146 
	C389.982635,1387.672363 390.127411,1384.654785 390.127258,1381.655396 
	C390.122559,1291.661011 390.122406,1201.666748 390.127808,1111.672363 
	C390.128021,1108.339722 390.008759,1104.993408 390.256561,1101.676758 
	C391.308350,1087.599854 399.771515,1077.151978 413.086823,1073.298340 
	C427.180847,1069.219482 441.853302,1073.566284 449.599640,1084.947876 
	C452.700134,1089.503418 454.261414,1095.106323 456.929504,1101.153076 
	C484.729736,1076.083130 517.906677,1065.896606 554.845276,1068.327393 
	C591.989441,1070.771729 622.487244,1086.593628 645.245300,1117.352905 
	C648.398743,1114.326294 650.798035,1112.128418 653.081238,1109.815918 
	C679.682983,1082.874390 712.350464,1069.991699 749.751892,1068.144165 
	C765.155212,1067.383301 780.456238,1068.560791 795.227173,1073.023560 
	C838.676208,1086.150635 864.424622,1116.057129 875.792236,1159.259399 
	C880.146973,1175.809570 881.179626,1192.816895 881.280579,1209.760254 
	C881.617859,1266.421387 881.437012,1323.085693 881.358826,1379.748657 
	C881.351929,1384.721436 880.645508,1389.693115 880.169434,1395.490845 
z"/>
<path fill="#5B3593" opacity="1.000000" stroke="none" 
	d="
M1448.140625,922.054871 
	C1482.966675,915.036377 1517.100342,913.678467 1551.185425,920.690552 
	C1597.538574,930.226318 1631.721680,957.515259 1657.694458,995.939636 
	C1662.463745,1002.995117 1666.572876,1010.954773 1668.911011,1019.093384 
	C1672.901489,1032.984497 1664.305542,1047.369263 1650.766479,1051.483765 
	C1642.191162,1054.089722 1633.628906,1053.566284 1625.407349,1049.811157 
	C1618.531006,1046.670410 1613.843750,1041.328369 1609.415405,1035.236816 
	C1602.007202,1025.046143 1594.493042,1014.706238 1585.586182,1005.879517 
	C1568.138062,988.588135 1546.186768,980.521545 1521.966309,977.713928 
	C1499.174194,975.072021 1476.655396,976.284790 1454.590942,982.220642 
	C1445.042114,984.789612 1435.567993,988.556335 1426.897095,993.306885 
	C1392.913696,1011.925354 1382.573975,1053.291260 1403.226807,1086.278198 
	C1411.587646,1099.632080 1423.191895,1109.379761 1437.434448,1116.031982 
	C1456.034424,1124.719482 1475.873413,1128.851562 1495.987183,1132.003540 
	C1517.014282,1135.298828 1538.222290,1137.768311 1559.001587,1142.227783 
	C1582.650391,1147.303101 1604.428467,1157.384399 1623.837524,1172.114502 
	C1656.067871,1196.575439 1672.816040,1229.393555 1675.760498,1269.411377 
	C1677.062256,1287.105103 1676.036621,1304.712036 1670.955933,1321.874878 
	C1660.220947,1358.138306 1636.742065,1384.028320 1604.072266,1401.601318 
	C1560.925293,1424.809814 1514.318848,1430.200439 1466.323608,1424.898438 
	C1425.381592,1420.375732 1388.288452,1405.549194 1355.925171,1379.738159 
	C1338.734009,1366.027710 1325.236450,1349.272461 1316.023804,1329.209839 
	C1309.130737,1314.198608 1309.947388,1303.759644 1318.600708,1295.012085 
	C1328.444458,1285.060913 1345.527588,1282.136841 1358.476807,1288.247681 
	C1365.602661,1291.610229 1371.859131,1296.407715 1375.114258,1303.539551 
	C1387.189453,1329.995605 1409.257080,1344.821167 1434.998169,1354.850708 
	C1474.708252,1370.323486 1514.934692,1370.874023 1555.047363,1356.103149 
	C1562.173706,1353.478760 1568.977905,1349.727417 1575.520752,1345.811157 
	C1615.812622,1321.692993 1616.785645,1278.147095 1602.848267,1248.999268 
	C1592.599121,1227.564941 1575.369751,1213.389282 1553.817383,1204.131104 
	C1533.669800,1195.476562 1512.289307,1192.435913 1490.718384,1190.017578 
	C1452.510010,1185.733643 1416.124146,1175.818848 1384.253784,1153.255615 
	C1357.844849,1134.558960 1338.416382,1110.573608 1331.260986,1078.336304 
	C1319.863770,1026.988770 1335.265747,981.378052 1379.509033,950.414917 
	C1400.035156,936.049988 1423.097290,927.724548 1448.140625,922.054871 
z"/>
<path fill="#5C3694" opacity="1.000000" stroke="none" 
	d="
M1833.854492,1066.000000 
	C1833.854492,1114.512573 1833.854492,1162.025024 1833.854492,1211.763184 
	C1838.225342,1208.153442 1840.988281,1206.021240 1843.586182,1203.703979 
	C1891.592529,1160.882812 1939.562500,1118.020874 1987.579468,1075.211670 
	C2003.071655,1061.399780 2021.315796,1063.374146 2033.166870,1080.003906 
	C2041.073242,1091.098389 2040.084595,1105.918091 2030.589722,1115.782715 
	C2027.593262,1118.895996 2024.198364,1121.627686 2020.965698,1124.511475 
	C1986.889771,1154.909302 1952.805298,1185.297729 1918.739990,1215.707520 
	C1916.295776,1217.889404 1913.982910,1220.218384 1911.245850,1222.824585 
	C1925.495117,1240.323608 1939.359131,1257.363525 1953.238525,1274.391235 
	C1980.192139,1307.458374 2007.130249,1340.538208 2034.127441,1373.569824 
	C2042.300171,1383.569214 2044.319092,1394.576294 2038.641846,1406.161499 
	C2032.927246,1417.822754 2023.183472,1424.182373 2009.975708,1424.690552 
	C1999.368286,1425.098755 1991.678223,1420.034912 1985.254761,1412.007202 
	C1967.139282,1389.367554 1948.830688,1366.882324 1930.601685,1344.333374 
	C1910.906006,1319.970093 1891.221680,1295.597534 1871.508423,1271.248413 
	C1869.646118,1268.948242 1867.611816,1266.787476 1865.124756,1263.955444 
	C1855.302246,1272.596558 1845.593994,1280.646729 1836.589722,1289.419434 
	C1834.462646,1291.491577 1833.990234,1295.989258 1833.966797,1299.379395 
	C1833.769531,1328.044434 1833.937134,1356.712036 1833.771606,1385.377441 
	C1833.743042,1390.317871 1833.309082,1395.442505 1831.935547,1400.153564 
	C1827.927734,1413.900757 1815.729492,1421.058105 1798.978027,1420.141968 
	C1784.927856,1419.373657 1774.274902,1410.292725 1771.802124,1396.644287 
	C1771.094849,1392.740112 1770.893799,1388.697876 1770.892578,1384.718750 
	C1770.848267,1242.386597 1770.854980,1100.054565 1770.857300,957.722473 
	C1770.857300,955.722839 1770.786621,953.716064 1770.924316,951.724731 
	C1772.636475,926.966248 1797.686523,913.676147 1819.199951,926.219421 
	C1829.753784,932.372864 1833.761963,942.256409 1833.822021,954.001709 
	C1833.909058,971.001099 1833.852295,988.001282 1833.853882,1005.001099 
	C1833.855713,1025.000732 1833.854492,1045.000366 1833.854492,1066.000000 
z"/>
<path fill="#8175E5" opacity="1.000000" stroke="none" 
	d="
M1169.502686,1343.529907 
	C1149.052979,1389.560791 1128.918579,1434.901978 1108.781982,1480.242310 
	C1098.645630,1503.065796 1088.532349,1525.899658 1078.344238,1548.699829 
	C1076.308594,1553.255493 1074.348999,1557.911499 1071.711304,1562.118164 
	C1065.843994,1571.476318 1055.641357,1575.288574 1044.894653,1572.518433 
	C1041.679565,1571.689575 1038.454102,1570.750122 1035.402832,1569.460571 
	C1017.892029,1562.059937 1012.252563,1548.009155 1019.818359,1530.476440 
	C1024.962891,1518.554443 1030.354980,1506.739136 1035.621094,1494.869385 
	C1050.744141,1460.782471 1065.724731,1426.631104 1081.120239,1392.667725 
	C1083.484253,1387.452515 1082.960449,1383.549072 1080.439575,1378.784058 
	C1037.763184,1298.116211 995.213867,1217.381226 952.651611,1136.653076 
	C948.767761,1129.286743 944.868164,1121.924683 941.181274,1114.459229 
	C933.546448,1098.999512 938.442810,1083.473267 953.409363,1075.232422 
	C968.036804,1067.178223 984.887695,1071.340942 993.594299,1085.428467 
	C996.562317,1090.231079 998.903137,1095.426880 1001.447449,1100.484741 
	C1036.472046,1170.111450 1071.478027,1239.747681 1106.509644,1309.370728 
	C1107.968750,1312.270508 1109.633423,1315.066772 1112.008179,1319.372314 
	C1114.144775,1315.474121 1115.850952,1312.828857 1117.114380,1309.986694 
	C1139.431396,1259.783569 1161.688232,1209.553589 1183.972046,1159.335693 
	C1194.101562,1136.508423 1204.530884,1113.809448 1214.326416,1090.839844 
	C1222.746338,1071.095825 1238.967285,1066.939453 1257.878174,1075.742920 
	C1273.519897,1083.024292 1278.619629,1094.655518 1272.587524,1110.877319 
	C1268.068848,1123.029419 1262.532104,1134.811401 1257.253052,1146.671143 
	C1228.140991,1212.075562 1198.968750,1277.453125 1169.502686,1343.529907 
z"/>
<path fill="#5B3593" opacity="1.000000" stroke="none" 
	d="
M2970.712646,1379.174927 
	C2956.306396,1356.204346 2950.259033,1331.573364 2950.059082,1305.444336 
	C2949.826904,1275.137329 2949.999023,1244.827271 2949.998779,1214.518555 
	C2949.997803,1130.919800 2949.998535,1047.321045 2949.999023,963.722290 
	C2949.999023,960.724731 2949.965332,957.726624 2950.010254,954.729675 
	C2950.311035,934.721985 2963.066895,921.853271 2982.412354,922.020142 
	C3001.234131,922.182495 3013.892578,935.001709 3013.955566,954.527405 
	C3014.092041,996.825928 3014.000732,1039.125244 3014.001221,1081.424194 
	C3014.002197,1154.031860 3013.846191,1226.640381 3014.180420,1299.246460 
	C3014.227295,1309.431152 3015.936279,1319.779663 3018.289551,1329.717651 
	C3019.692871,1335.645874 3023.321289,1341.293823 3026.903320,1346.398315 
	C3031.521973,1352.980347 3038.210205,1356.483154 3046.612549,1356.179810 
	C3051.933838,1355.987671 3057.280273,1355.956665 3062.594971,1356.239624 
	C3075.721191,1356.938354 3085.225342,1364.487183 3089.009766,1376.916260 
	C3093.052979,1390.195312 3089.791016,1402.398193 3079.763428,1410.355957 
	C3071.676758,1416.773560 3062.270264,1419.666870 3052.000000,1420.162598 
	C3017.463867,1421.829834 2990.677979,1408.064575 2970.712646,1379.174927 
z"/>
<path fill="#FFFFFF" opacity="1.000000" stroke="none" 
	d="
M2124.317383,566.284180 
	C2190.215576,529.735779 2255.492676,493.583954 2320.740234,457.378754 
	C2372.880371,428.446655 2424.984131,399.448517 2477.106689,370.484680 
	C2479.145020,369.352020 2481.353271,368.468933 2483.237549,367.126068 
	C2488.164551,363.615295 2492.363037,364.193665 2497.750488,367.189972 
	C2618.279541,434.222015 2738.948975,501.001251 2859.570801,567.866455 
	C2944.646484,615.026978 3029.693359,662.239136 3114.747559,709.438538 
	C3142.709717,724.955750 3170.656738,740.500183 3198.600830,756.049683 
	C3200.322510,757.007690 3201.957764,758.120789 3204.710449,759.831116 
	C3202.063232,761.207092 3200.337402,762.443359 3198.413086,763.055176 
	C3136.553223,782.724976 3074.676514,802.342957 3012.796875,821.950317 
	C2963.292725,837.636292 2913.781982,853.300964 2864.272217,868.969177 
	C2854.751465,871.982239 2845.192871,874.878784 2835.703613,877.988464 
	C2823.932861,881.845825 2820.281982,886.829590 2820.258789,899.264282 
	C2820.196533,932.595093 2820.236572,965.926086 2820.235840,999.257019 
	C2820.235840,1000.906738 2820.235840,1002.556396 2820.235840,1006.237305 
	C2816.214600,1003.579895 2813.313232,1001.784851 2810.539307,999.811035 
	C2777.070312,975.997009 2741.876221,955.133789 2704.792725,937.427002 
	C2652.395264,912.407776 2597.560547,895.414429 2539.878418,888.621643 
	C2499.763428,883.897583 2459.565918,884.342834 2419.366455,889.516541 
	C2337.345459,900.072632 2262.450195,930.072876 2191.784912,971.777649 
	C2176.018066,981.082947 2160.865967,991.429382 2145.421631,1001.281677 
	C2142.946533,1002.860657 2140.421387,1004.361328 2137.834229,1005.950378 
	C2135.325928,998.567749 2134.271973,811.101074 2136.532227,784.458191 
	C2150.941650,776.685669 2165.806885,768.584106 2180.746338,760.622070 
	C2277.175781,709.229736 2373.622803,657.870483 2470.057617,606.488525 
	C2474.466797,604.139160 2478.972168,601.919006 2483.159912,599.216431 
	C2491.618896,593.757935 2493.927490,584.995056 2489.421387,576.704590 
	C2485.029785,568.624695 2475.933594,565.360779 2467.102783,569.761047 
	C2451.303711,577.633362 2435.789795,586.082275 2420.208984,594.388000 
	C2372.878418,619.618958 2325.567383,644.887146 2278.258301,670.158569 
	C2223.602783,699.354065 2169.018799,728.683899 2114.245850,757.656738 
	C2105.470215,762.298767 2101.745605,768.546387 2101.877197,778.363770 
	C2102.212891,803.357422 2101.986328,828.358643 2101.985107,853.356812 
	C2101.984863,856.578369 2101.985107,859.799927 2101.985107,864.288757 
	C1992.932007,829.751770 1885.287964,795.661011 1777.643799,761.570251 
	C1777.552979,760.701294 1777.462280,759.832397 1777.371460,758.963440 
	C1834.890991,726.435730 1892.922852,694.811707 1950.631592,662.620667 
	C2008.234863,630.488342 2065.993164,598.633911 2124.317383,566.284180 
z"/>
<path fill="#FDFDFE" opacity="1.000000" stroke="none" 
	d="
M2610.853516,1351.193726 
	C2587.386230,1330.156006 2571.122803,1305.529541 2565.046143,1274.959961 
	C2546.376465,1181.044800 2618.599121,1115.523560 2686.360352,1109.321533 
	C2759.885986,1102.591797 2814.064697,1149.302979 2831.255371,1197.936646 
	C2864.947266,1293.254639 2796.058594,1372.279541 2723.752686,1383.529175 
	C2681.653564,1390.079102 2643.848877,1379.891235 2610.853516,1351.193726 
M2676.811523,1314.664429 
	C2688.731934,1318.837402 2701.012451,1319.367188 2713.264648,1317.179199 
	C2748.667725,1310.856689 2778.174316,1278.647827 2774.250977,1234.822266 
	C2771.136963,1200.036743 2740.205078,1170.583740 2703.117188,1168.382812 
	C2699.670898,1168.178345 2696.168945,1168.915039 2691.728027,1169.297729 
	C2691.728027,1190.603638 2691.728027,1210.758789 2691.728027,1231.751709 
	C2680.072021,1231.751709 2669.478271,1231.683472 2658.885742,1231.770630 
	C2648.046387,1231.859863 2637.171143,1231.369995 2626.628418,1232.107300 
	C2620.823486,1269.091675 2639.696777,1300.300293 2676.811523,1314.664429 
z"/>
<path fill="#FEFDFE" opacity="1.000000" stroke="none" 
	d="
M2178.538330,1361.578003 
	C2149.866699,1340.729126 2128.944092,1314.849487 2120.807861,1280.635254 
	C2099.519775,1191.116333 2161.329834,1122.236328 2232.061768,1110.448486 
	C2295.641113,1099.852661 2359.877197,1133.887207 2383.466064,1192.545776 
	C2422.190186,1288.840698 2352.987061,1371.794922 2278.070312,1383.555664 
	C2242.519775,1389.136475 2209.167480,1382.673950 2178.538330,1361.578003 
M2289.648926,1308.953979 
	C2291.056885,1308.066650 2292.501709,1307.232544 2293.867188,1306.284058 
	C2319.399658,1288.546997 2331.489746,1263.987061 2327.138672,1233.319214 
	C2322.612061,1201.416138 2303.688721,1180.349854 2272.503418,1171.291138 
	C2264.106201,1168.851929 2255.265625,1166.756836 2245.493164,1169.483887 
	C2245.493164,1190.240845 2245.493164,1210.430298 2245.493164,1231.656128 
	C2223.128174,1231.656128 2201.633545,1231.656128 2180.167480,1231.656128 
	C2179.338135,1234.159546 2178.466064,1235.676880 2178.372803,1237.240723 
	C2176.897461,1262.019897 2184.712158,1283.518311 2203.647217,1299.584473 
	C2229.304932,1321.354492 2258.004150,1324.045288 2289.648926,1308.953979 
z"/>
<path fill="#8175E5" opacity="1.000000" stroke="none" 
	d="
M2676.049561,1314.428345 
	C2639.696777,1300.300293 2620.823486,1269.091675 2626.628418,1232.107300 
	C2637.171143,1231.369995 2648.046387,1231.859863 2658.885742,1231.770630 
	C2669.478271,1231.683472 2680.072021,1231.751709 2691.728027,1231.751709 
	C2691.728027,1210.758789 2691.728027,1190.603638 2691.728027,1169.297729 
	C2696.168945,1168.915039 2699.670898,1168.178345 2703.117188,1168.382812 
	C2740.205078,1170.583740 2771.136963,1200.036743 2774.250977,1234.822266 
	C2778.174316,1278.647827 2748.667725,1310.856689 2713.264648,1317.179199 
	C2701.012451,1319.367188 2688.731934,1318.837402 2676.049561,1314.428345 
z"/>
<path fill="#8175E5" opacity="1.000000" stroke="none" 
	d="
M2289.004883,1309.331421 
	C2258.004150,1324.045288 2229.304932,1321.354492 2203.647217,1299.584473 
	C2184.712158,1283.518311 2176.897461,1262.019897 2178.372803,1237.240723 
	C2178.466064,1235.676880 2179.338135,1234.159546 2180.167480,1231.656128 
	C2201.633545,1231.656128 2223.128174,1231.656128 2245.493164,1231.656128 
	C2245.493164,1210.430298 2245.493164,1190.240845 2245.493164,1169.483887 
	C2255.265625,1166.756836 2264.106201,1168.851929 2272.503418,1171.291138 
	C2303.688721,1180.349854 2322.612061,1201.416138 2327.138672,1233.319214 
	C2331.489746,1263.987061 2319.399658,1288.546997 2293.867188,1306.284058 
	C2292.501709,1307.232544 2291.056885,1308.066650 2289.004883,1309.331421 
z"/>
</svg>